<svg width="28" height="28" viewBox="0 0 28 28" fill="none" xmlns="http://www.w3.org/2000/svg"><path fill-rule="evenodd" clip-rule="evenodd" d="M20.033 18.9431C19.8619 19.1317 19.1948 19.2002 18.6475 19.4061C18.3566 19.5261 17.4844 19.8518 17.3474 19.9718C15.6026 22.2694 11.9423 22.1836 10.2317 20.1433C8.94882 18.6343 8.91452 17.0055 9.39348 15.2567C10.4198 12.9075 12.5751 11.8959 15.0039 12.4962C15.3632 12.5821 15.7053 12.6677 16.0473 12.8563C16.2868 12.9936 16.5433 13.2507 16.7314 13.2678L18.9379 14.8966C20.6997 15.9597 22.9233 16.5083 25.0614 16.0282C25.7285 15.8738 27.5587 15.3081 27.8152 14.8966C28.4309 13.9194 27.3535 9.88997 26.8402 8.60394C22.9915 -1.11781 9.35898 -3.2269 2.8249 5.51762C-0.818407 10.4213 -1.09218 17.1255 2.91034 22.5607C3.23526 22.9894 3.49178 23.1608 3.78281 23.5382C4.4842 24.4127 6.02355 25.527 7.01555 26.1271C13.1904 29.865 21.5376 27.8074 25.5572 21.7377C25.9334 21.172 26.7716 19.8859 26.84 19.1487C26.2927 19.1487 25.8137 18.9773 25.2493 18.8914C23.59 18.6343 21.521 18.686 20.033 18.9431ZM22.5576 8.99467C23.2555 8.99467 23.8211 9.56162 23.8211 10.2611C23.8211 10.9605 23.2555 11.5274 22.5576 11.5274C21.8599 11.5274 21.2942 10.9605 21.2942 10.2611C21.2942 9.56162 21.8599 8.99467 22.5576 8.99467Z" fill="#359F85"></path><path fill-rule="evenodd" clip-rule="evenodd" d="M9.38629 15.2545C9.8139 15.5631 9.98498 15.7173 10.498 15.9746C10.9256 16.1803 11.2849 16.3517 11.8322 16.4888C11.9349 16.2488 11.969 15.9917 12.0546 15.6829C12.2598 14.9113 12.7388 14.1055 13.3718 13.6255C15.1165 12.3223 16.0574 13.2483 16.7244 13.2654C16.5363 13.2483 16.2798 12.991 16.0403 12.8539C15.6983 12.6653 15.3562 12.5797 14.997 12.4938C12.5681 11.8937 10.4126 12.9056 9.38629 15.2545Z" fill="#359F85"></path><path fill-rule="evenodd" clip-rule="evenodd" d="M17.3491 19.9688C17.4858 19.8487 18.3583 19.5231 18.6491 19.403C19.1965 19.1972 19.8636 19.1286 20.0347 18.9401C20.2058 18.1514 18.9741 16.5739 18.2729 16.3853C18.2729 17.1913 18.2899 17.8084 18.1018 18.46C17.828 19.4372 17.5887 19.5058 17.3491 19.9688Z" fill="#359F85"></path></svg>